<svg width="40" height="50" viewBox="0 0 40 50" fill="none" xmlns="http://www.w3.org/2000/svg">
<path d="M2 14.2667L20.3673 2L38 14.2667V35.0519L20.3673 48L2 35.0519V14.2667Z" stroke="#FA709A" stroke-width="3"/>
<path d="M20.416 33.836C19.12 33.836 17.976 33.604 16.984 33.14C15.992 32.676 15.216 32.012 14.656 31.148C14.096 30.284 13.816 29.244 13.816 28.028V27.356H16.936V28.028C16.936 29.036 17.248 29.796 17.872 30.308C18.496 30.804 19.344 31.052 20.416 31.052C21.504 31.052 22.312 30.836 22.84 30.404C23.384 29.972 23.656 29.42 23.656 28.748C23.656 28.284 23.52 27.908 23.248 27.62C22.992 27.332 22.608 27.1 22.096 26.924C21.6 26.732 20.992 26.556 20.272 26.396L19.72 26.276C18.568 26.02 17.576 25.7 16.744 25.316C15.928 24.916 15.296 24.396 14.848 23.756C14.416 23.116 14.2 22.284 14.2 21.26C14.2 20.236 14.44 19.364 14.92 18.644C15.416 17.908 16.104 17.348 16.984 16.964C17.88 16.564 18.928 16.364 20.128 16.364C21.328 16.364 22.392 16.572 23.32 16.988C24.264 17.388 25 17.996 25.528 18.812C26.072 19.612 26.344 20.62 26.344 21.836V22.556H23.224V21.836C23.224 21.196 23.096 20.684 22.84 20.3C22.6 19.9 22.248 19.612 21.784 19.436C21.32 19.244 20.768 19.148 20.128 19.148C19.168 19.148 18.456 19.332 17.992 19.7C17.544 20.052 17.32 20.54 17.32 21.164C17.32 21.58 17.424 21.932 17.632 22.22C17.856 22.508 18.184 22.748 18.616 22.94C19.048 23.132 19.6 23.3 20.272 23.444L20.824 23.564C22.024 23.82 23.064 24.148 23.944 24.548C24.84 24.948 25.536 25.476 26.032 26.132C26.528 26.788 26.776 27.628 26.776 28.652C26.776 29.676 26.512 30.58 25.984 31.364C25.472 32.132 24.736 32.74 23.776 33.188C22.832 33.62 21.712 33.836 20.416 33.836Z" fill="#FA709A"/>
</svg>
